# xmcd
#
# Track frame offsets:
#	150
#	18903
#	35101
#	53917
#	70450
#	89156
#	107932
#	123135
#	138550
#	158059
#	173206
#	189823
#	209902
#	229186
#	259679
#
# Disc length: 4440 seconds
#
# Revision: 0
# Processed by: cddbd v1.5.1PL0 Copyright (c) Steve Scherf et al.
# Submitted via: dBpowerAMP V4.0
#
DISCID=dd11560f
DTITLE=3DVoz - 3DVoz
DYEAR=2004
DGENRE=R&B
TTITLE0=El Tiempo Pasa
TTITLE1=Fiesta
TTITLE2=Gracias
TTITLE3=La Distancia
TTITLE4=Háblame
TTITLE5=Déjate Notar
TTITLE6=No Me Engañas
TTITLE7=Tómalo
TTITLE8=Como Lo Quieras
TTITLE9=Señorita Hispana
TTITLE10=Muévete
TTITLE11=Confusión
TTITLE12=No Tuve Valor
TTITLE13=El Tiempo Pasa (Remix)
TTITLE14=DATA
EXTD=
EXTT0=
EXTT1=
EXTT2=
EXTT3=
EXTT4=
EXTT5=
EXTT6=
EXTT7=
EXTT8=
EXTT9=
EXTT10=
EXTT11=
EXTT12=
EXTT13=
EXTT14=
PLAYORDER=
